Sans_opsz8.ufo
<glyph name="numbersign" format="2">
  <advance width="885"/>
  <unicode hex="0023"/>
  <outline>
    <contour>
      <point x="548" y="118" type="line"/>
      <point x="789" y="118" type="line" smooth="yes"/>
      <point x="803" y="118"/>
      <point x="825" y="118"/>
      <point x="825" y="141" type="curve" smooth="yes"/>
      <point x="825" y="164"/>
      <point x="803" y="164"/>
      <point x="789" y="164" type="curve" smooth="yes"/>
      <point x="562" y="164" type="line"/>
      <point x="611" y="336" type="line"/>
      <point x="789" y="336" type="line" smooth="yes"/>
      <point x="803" y="336"/>
      <point x="825" y="336"/>
      <point x="825" y="359" type="curve" smooth="yes"/>
      <point x="825" y="382"/>
      <point x="803" y="382"/>
      <point x="789" y="382" type="curve" smooth="yes"/>
      <point x="625" y="382" type="line"/>
      <point x="703" y="652" type="line" smooth="yes"/>
      <point x="706" y="661"/>
      <point x="707" y="668"/>
      <point x="707" y="671" type="curve" smooth="yes"/>
      <point x="707" y="684"/>
      <point x="697" y="694"/>
      <point x="684" y="694" type="curve" smooth="yes"/>
      <point x="667" y="694"/>
      <point x="664" y="682"/>
      <point x="660" y="669" type="curve" smooth="yes"/>
      <point x="578" y="382" type="line"/>
      <point x="383" y="382" type="line"/>
      <point x="461" y="652" type="line" smooth="yes"/>
      <point x="464" y="661"/>
      <point x="465" y="668"/>
      <point x="465" y="671" type="curve" smooth="yes"/>
      <point x="465" y="684"/>
      <point x="455" y="694"/>
      <point x="442" y="694" type="curve" smooth="yes"/>
      <point x="425" y="694"/>
      <point x="422" y="682"/>
      <point x="418" y="669" type="curve" smooth="yes"/>
      <point x="336" y="382" type="line"/>
      <point x="95" y="382" type="line" smooth="yes"/>
      <point x="81" y="382"/>
      <point x="59" y="382"/>
      <point x="59" y="359" type="curve" smooth="yes"/>
      <point x="59" y="336"/>
      <point x="81" y="336"/>
      <point x="95" y="336" type="curve" smooth="yes"/>
      <point x="322" y="336" type="line"/>
      <point x="273" y="164" type="line"/>
      <point x="95" y="164" type="line" smooth="yes"/>
      <point x="81" y="164"/>
      <point x="59" y="164"/>
      <point x="59" y="141" type="curve" smooth="yes"/>
      <point x="59" y="118"/>
      <point x="81" y="118"/>
      <point x="95" y="118" type="curve" smooth="yes"/>
      <point x="259" y="118" type="line"/>
      <point x="181" y="-152" type="line" smooth="yes"/>
      <point x="178" y="-161"/>
      <point x="177" y="-168"/>
      <point x="177" y="-171" type="curve" smooth="yes"/>
      <point x="177" y="-184"/>
      <point x="187" y="-194"/>
      <point x="200" y="-194" type="curve" smooth="yes"/>
      <point x="217" y="-194"/>
      <point x="220" y="-182"/>
      <point x="224" y="-169" type="curve" smooth="yes"/>
      <point x="306" y="118" type="line"/>
      <point x="501" y="118" type="line"/>
      <point x="423" y="-152" type="line" smooth="yes"/>
      <point x="420" y="-161"/>
      <point x="419" y="-168"/>
      <point x="419" y="-171" type="curve" smooth="yes"/>
      <point x="419" y="-184"/>
      <point x="429" y="-194"/>
      <point x="442" y="-194" type="curve" smooth="yes"/>
      <point x="459" y="-194"/>
      <point x="462" y="-182"/>
      <point x="466" y="-169" type="curve" smooth="yes"/>
    </contour>
    <contour>
      <point x="320" y="164" type="line"/>
      <point x="369" y="336" type="line"/>
      <point x="564" y="336" type="line"/>
      <point x="515" y="164" type="line"/>
    </contour>
  </outline>
</glyph>
<glyph name="percent" format="2">
  <advance width="885"/>
  <unicode hex="0025"/>
  <outline>
    <contour>
      <point x="208" y="-56" type="curve" smooth="yes"/>
      <point x="220" y="-56"/>
      <point x="224" y="-50"/>
      <point x="230" y="-40" type="curve" smooth="yes"/>
      <point x="694" y="706" type="line" smooth="yes"/>
      <point x="701" y="717"/>
      <point x="703" y="720"/>
      <point x="703" y="727" type="curve" smooth="yes"/>
      <point x="703" y="740"/>
      <point x="693" y="750"/>
      <point x="680" y="750" type="curve" smooth="yes"/>
      <point x="668" y="750"/>
      <point x="664" y="744"/>
      <point x="656" y="731" type="curve" smooth="yes"/>
      <point x="194" y="-12" type="line" smooth="yes"/>
      <point x="188" y="-22"/>
      <point x="185" y="-26"/>
      <point x="185" y="-33" type="curve" smooth="yes"/>
      <point x="185" y="-46"/>
      <point x="195" y="-56"/>
    </contour>
    <contour>
      <point x="207" y="413" type="curve" smooth="yes"/>
      <point x="164" y="413"/>
      <point x="140" y="470"/>
      <point x="140" y="548" type="curve" smooth="yes"/>
      <point x="140" y="675"/>
      <point x="192" y="684"/>
      <point x="207" y="684" type="curve" smooth="yes"/>
      <point x="250" y="684"/>
      <point x="279" y="620"/>
      <point x="279" y="549" type="curve" smooth="yes"/>
      <point x="279" y="474"/>
      <point x="248" y="413"/>
    </contour>
    <contour>
      <point x="207" y="347" type="curve" smooth="yes"/>
      <point x="286" y="347"/>
      <point x="353" y="435"/>
      <point x="353" y="548" type="curve" smooth="yes"/>
      <point x="353" y="664"/>
      <point x="285" y="750"/>
      <point x="207" y="750" type="curve" smooth="yes"/>
      <point x="134" y="750"/>
      <point x="59" y="670"/>
      <point x="59" y="548" type="curve" smooth="yes"/>
      <point x="59" y="429"/>
      <point x="132" y="347"/>
    </contour>
    <contour>
      <point x="679" y="10" type="curve" smooth="yes"/>
      <point x="636" y="10"/>
      <point x="612" y="67"/>
      <point x="612" y="145" type="curve" smooth="yes"/>
      <point x="612" y="272"/>
      <point x="664" y="281"/>
      <point x="679" y="281" type="curve" smooth="yes"/>
      <point x="722" y="281"/>
      <point x="751" y="217"/>
      <point x="751" y="146" type="curve" smooth="yes"/>
      <point x="751" y="71"/>
      <point x="720" y="10"/>
    </contour>
    <contour>
      <point x="679" y="-56" type="curve" smooth="yes"/>
      <point x="758" y="-56"/>
      <point x="825" y="32"/>
      <point x="825" y="145" type="curve" smooth="yes"/>
      <point x="825" y="261"/>
      <point x="757" y="347"/>
      <point x="679" y="347" type="curve" smooth="yes"/>
      <point x="604" y="347"/>
      <point x="531" y="264"/>
      <point x="531" y="146" type="curve" smooth="yes"/>
      <point x="531" y="24"/>
      <point x="606" y="-56"/>
    </contour>
  </outline>
</glyph>
<glyph name="parenleft" format="2">
  <advance width="413"/>
  <unicode hex="0028"/>
  <outline>
    <contour>
      <point x="288" y="750" type="line"/>
      <point x="164" y="649"/>
      <point x="84" y="479"/>
      <point x="84" y="250" type="curve" smooth="yes"/>
      <point x="84" y="61"/>
      <point x="139" y="-127"/>
      <point x="288" y="-250" type="curve"/>
      <point x="353" y="-250" type="line"/>
      <point x="281" y="-185"/>
      <point x="171" y="-38"/>
      <point x="171" y="250" type="curve" smooth="yes"/>
      <point x="171" y="596"/>
      <point x="333" y="733"/>
      <point x="353" y="750" type="curve"/>
    </contour>
  </outline>
</glyph>
<glyph name="hyphen" format="2">
  <advance width="354"/>
  <unicode hex="002D"/>
  <outline>
    <contour>
      <point x="294" y="191" type="line"/>
      <point x="294" y="254" type="line"/>
      <point x="12" y="254" type="line"/>
      <point x="12" y="191" type="line"/>
    </contour>
  </outline>
</glyph>
<glyph name="slash" format="2">
  <advance width="531"/>
  <unicode hex="002F"/>
  <outline>
    <contour>
      <point x="466" y="709" type="line" smooth="yes"/>
      <point x="471" y="721"/>
      <point x="471" y="725"/>
      <point x="471" y="727" type="curve" smooth="yes"/>
      <point x="471" y="740"/>
      <point x="461" y="750"/>
      <point x="448" y="750" type="curve" smooth="yes"/>
      <point x="432" y="750"/>
      <point x="428" y="738"/>
      <point x="423" y="726" type="curve" smooth="yes"/>
      <point x="64" y="-209" type="line" smooth="yes"/>
      <point x="59" y="-221"/>
      <point x="59" y="-225"/>
      <point x="59" y="-227" type="curve" smooth="yes"/>
      <point x="59" y="-240"/>
      <point x="69" y="-250"/>
      <point x="82" y="-250" type="curve" smooth="yes"/>
      <point x="98" y="-250"/>
      <point x="102" y="-238"/>
      <point x="107" y="-226" type="curve" smooth="yes"/>
    </contour>
  </outline>
</glyph>
<glyph name="one" format="2">
  <advance width="531"/>
  <unicode hex="0031"/>
  <outline>
    <contour>
      <point x="321" y="677" type="line"/>
      <point x="299" y="677" type="line"/>
      <point x="234" y="617"/>
      <point x="152" y="613"/>
      <point x="92" y="611" type="curve"/>
      <point x="92" y="548" type="line"/>
      <point x="131" y="549"/>
      <point x="181" y="551"/>
      <point x="231" y="571" type="curve"/>
      <point x="231" y="63" type="line"/>
      <point x="98" y="63" type="line"/>
      <point x="98" y="0" type="line"/>
      <point x="454" y="0" type="line"/>
      <point x="454" y="63" type="line"/>
      <point x="321" y="63" type="line"/>
    </contour>
  </outline>
</glyph>
<glyph name="three" format="2">
  <advance width="531"/>
  <unicode hex="0033"/>
  <outline>
    <contour>
      <point x="261" y="-21" type="curve" smooth="yes"/>
      <point x="392" y="-21"/>
      <point x="486" y="77"/>
      <point x="486" y="182" type="curve" smooth="yes"/>
      <point x="486" y="264"/>
      <point x="420" y="330"/>
      <point x="341" y="353" type="curve"/>
      <point x="417" y="392"/>
      <point x="456" y="459"/>
      <point x="456" y="524" type="curve" smooth="yes"/>
      <point x="456" y="609"/>
      <point x="369" y="677"/>
      <point x="262" y="677" type="curve" smooth="yes"/>
      <point x="174" y="677"/>
      <point x="101" y="631"/>
      <point x="59" y="571" type="curve"/>
      <point x="100" y="513" type="line"/>
      <point x="141" y="593"/>
      <point x="213" y="615"/>
      <point x="261" y="615" type="curve" smooth="yes"/>
      <point x="320" y="615"/>
      <point x="364" y="581"/>
      <point x="364" y="524" type="curve" smooth="yes"/>
      <point x="364" y="471"/>
      <point x="328" y="406"/>
      <point x="252" y="393" type="curve" smooth="yes"/>
      <point x="247" y="392"/>
      <point x="243" y="392"/>
      <point x="177" y="387" type="curve"/>
      <point x="177" y="321" type="line"/>
      <point x="255" y="321" type="line" smooth="yes"/>
      <point x="350" y="321"/>
      <point x="385" y="246"/>
      <point x="385" y="183" type="curve" smooth="yes"/>
      <point x="385" y="105"/>
      <point x="337" y="45"/>
      <point x="259" y="45" type="curve" smooth="yes"/>
      <point x="188" y="45"/>
      <point x="107" y="79"/>
      <point x="57" y="143" type="curve"/>
      <point x="44" y="78" type="line"/>
      <point x="102" y="13"/>
      <point x="183" y="-21"/>
    </contour>
  </outline>
</glyph>
<glyph name="four" format="2">
  <advance width="531"/>
  <unicode hex="0034"/>
  <outline>
    <contour>
      <point x="396" y="167" type="line"/>
      <point x="500" y="167" type="line"/>
      <point x="500" y="233" type="line"/>
      <point x="396" y="233" type="line"/>
      <point x="396" y="656" type="line"/>
      <point x="297" y="656" type="line"/>
      <point x="30" y="233" type="line"/>
      <point x="30" y="167" type="line"/>
      <point x="310" y="167" type="line"/>
      <point x="310" y="0" type="line"/>
      <point x="396" y="0" type="line"/>
    </contour>
    <contour>
      <point x="115" y="233" type="line"/>
      <point x="145" y="280"/>
      <point x="317" y="547"/>
      <point x="317" y="607" type="curve"/>
      <point x="317" y="233" type="line"/>
    </contour>
  </outline>
</glyph>
<glyph name="five" format="2">
  <advance width="531"/>
  <unicode hex="0035"/>
  <outline>
    <contour>
      <point x="164" y="587" type="line"/>
      <point x="441" y="587" type="line"/>
      <point x="441" y="656" type="line"/>
      <point x="84" y="656" type="line"/>
      <point x="84" y="282" type="line"/>
      <point x="157" y="282" type="line"/>
      <point x="181" y="336"/>
      <point x="228" y="360"/>
      <point x="273" y="360" type="curve" smooth="yes"/>
      <point x="314" y="360"/>
      <point x="376" y="332"/>
      <point x="376" y="205" type="curve" smooth="yes"/>
      <point x="376" y="74"/>
      <point x="293" y="45"/>
      <point x="242" y="45" type="curve" smooth="yes"/>
      <point x="176" y="45"/>
      <point x="112" y="80"/>
      <point x="78" y="137" type="curve"/>
      <point x="40" y="77" type="line"/>
      <point x="89" y="16"/>
      <point x="163" y="-21"/>
      <point x="242" y="-21" type="curve" smooth="yes"/>
      <point x="374" y="-21"/>
      <point x="477" y="81"/>
      <point x="477" y="203" type="curve" smooth="yes"/>
      <point x="477" y="327"/>
      <point x="385" y="426"/>
      <point x="275" y="426" type="curve" smooth="yes"/>
      <point x="232" y="426"/>
      <point x="194" y="411"/>
      <point x="164" y="386" type="curve"/>
    </contour>
  </outline>
</glyph>
<glyph name="seven" format="2">
  <advance width="531"/>
  <unicode hex="0037"/>
  <outline>
    <contour>
      <point x="247" y="579" type="line" smooth="yes"/>
      <point x="259" y="579"/>
      <point x="271" y="580"/>
      <point x="283" y="580" type="curve" smooth="yes"/>
      <point x="409" y="580" type="line"/>
      <point x="257" y="431"/>
      <point x="160" y="222"/>
      <point x="160" y="-10" type="curve"/>
      <point x="254" y="-10" type="line"/>
      <point x="254" y="282"/>
      <point x="396" y="492"/>
      <point x="486" y="586" type="curve"/>
      <point x="486" y="656" type="line"/>
      <point x="44" y="656" type="line"/>
      <point x="44" y="579" type="line"/>
    </contour>
  </outline>
</glyph>
<glyph name="nine" format="2">
  <advance width="531"/>
  <unicode hex="0039"/>
  <outline>
    <contour>
      <point x="77" y="25" type="line"/>
      <point x="126" y="-11"/>
      <point x="171" y="-21"/>
      <point x="218" y="-21" type="curve" smooth="yes"/>
      <point x="358" y="-21"/>
      <point x="486" y="120"/>
      <point x="486" y="335" type="curve" smooth="yes"/>
      <point x="486" y="608"/>
      <point x="365" y="677"/>
      <point x="269" y="677" type="curve" smooth="yes"/>
      <point x="180" y="677"/>
      <point x="139" y="635"/>
      <point x="110" y="606" type="curve" smooth="yes"/>
      <point x="46" y="541"/>
      <point x="44" y="472"/>
      <point x="44" y="433" type="curve" smooth="yes"/>
      <point x="44" y="304"/>
      <point x="114" y="193"/>
      <point x="212" y="193" type="curve" smooth="yes"/>
      <point x="325" y="193"/>
      <point x="387" y="268"/>
      <point x="392" y="274" type="curve"/>
      <point x="378" y="115"/>
      <point x="300" y="45"/>
      <point x="218" y="45" type="curve" smooth="yes"/>
      <point x="166" y="45"/>
      <point x="134" y="64"/>
      <point x="111" y="83" type="curve"/>
    </contour>
    <contour>
      <point x="389" y="434" type="curve"/>
      <point x="390" y="428"/>
      <point x="390" y="418"/>
      <point x="390" y="412" type="curve" smooth="yes"/>
      <point x="390" y="338"/>
      <point x="345" y="259"/>
      <point x="258" y="259" type="curve" smooth="yes"/>
      <point x="220" y="259"/>
      <point x="190" y="270"/>
      <point x="164" y="311" type="curve" smooth="yes"/>
      <point x="138" y="350"/>
      <point x="136" y="388"/>
      <point x="136" y="433" type="curve" smooth="yes"/>
      <point x="136" y="472"/>
      <point x="136" y="517"/>
      <point x="167" y="561" type="curve" smooth="yes"/>
      <point x="188" y="591"/>
      <point x="218" y="615"/>
      <point x="268" y="615" type="curve" smooth="yes"/>
      <point x="365" y="615"/>
      <point x="386" y="498"/>
    </contour>
  </outline>
</glyph>
<glyph name="semicolon" format="2">
  <advance width="295"/>
  <unicode hex="003B"/>
  <outline>
    <contour>
      <point x="192" y="444" type="line"/>
      <point x="102" y="444" type="line"/>
      <point x="102" y="354" type="line"/>
      <point x="192" y="354" type="line"/>
    </contour>
    <contour>
      <point x="101" y="-128" type="line"/>
      <point x="146" y="-128" type="line"/>
      <point x="192" y="1" type="line"/>
      <point x="192" y="90" type="line"/>
      <point x="102" y="90" type="line"/>
      <point x="102" y="0" type="line"/>
      <point x="130" y="0" type="line"/>
    </contour>
  </outline>
</glyph>
<glyph name="A" format="2">
  <advance width="708"/>
  <unicode hex="0041"/>
  <outline>
    <contour>
      <point x="402" y="694" type="line"/>
      <point x="305" y="694" type="line"/>
      <point x="30" y="0" type="line"/>
      <point x="112" y="0" type="line"/>
      <point x="190" y="198" type="line"/>
      <point x="494" y="198" type="line"/>
      <point x="572" y="0" type="line"/>
      <point x="677" y="0" type="line"/>
    </contour>
    <contour>
      <point x="343" y="618" type="line"/>
      <point x="469" y="257" type="line"/>
      <point x="215" y="257" type="line"/>
    </contour>
  </outline>
</glyph>
<glyph name="B" format="2">
  <advance width="708"/>
  <unicode hex="0042"/>
  <outline>
    <contour>
      <point x="100" y="694" type="line"/>
      <point x="100" y="0" type="line"/>
      <point x="385" y="0" type="line" smooth="yes"/>
      <point x="533" y="0"/>
      <point x="648" y="88"/>
      <point x="648" y="188" type="curve" smooth="yes"/>
      <point x="648" y="276"/>
      <point x="555" y="347"/>
      <point x="444" y="363" type="curve"/>
      <point x="548" y="388"/>
      <point x="618" y="448"/>
      <point x="618" y="520" type="curve" smooth="yes"/>
      <point x="618" y="612"/>
      <point x="503" y="694"/>
      <point x="356" y="694" type="curve" smooth="yes"/>
    </contour>
    <contour>
      <point x="194" y="394" type="line"/>
      <point x="194" y="635" type="line"/>
      <point x="326" y="635" type="line" smooth="yes"/>
      <point x="438" y="635"/>
      <point x="531" y="583"/>
      <point x="531" y="519" type="curve" smooth="yes"/>
      <point x="531" y="452"/>
      <point x="440" y="394"/>
      <point x="327" y="394" type="curve" smooth="yes"/>
    </contour>
    <contour>
      <point x="194" y="59" type="line"/>
      <point x="194" y="328" type="line"/>
      <point x="337" y="328" type="line" smooth="yes"/>
      <point x="463" y="328"/>
      <point x="557" y="264"/>
      <point x="557" y="189" type="curve" smooth="yes"/>
      <point x="557" y="115"/>
      <point x="464" y="59"/>
      <point x="354" y="59" type="curve" smooth="yes"/>
    </contour>
  </outline>
</glyph>
<glyph name="C" format="2">
  <advance width="679"/>
  <unicode hex="0043"/>
  <outline>
    <contour>
      <point x="619" y="122" type="line"/>
      <point x="549" y="79"/>
      <point x="517" y="60"/>
      <point x="417" y="60" type="curve" smooth="yes"/>
      <point x="262" y="60"/>
      <point x="168" y="205"/>
      <point x="168" y="349" type="curve" smooth="yes"/>
      <point x="168" y="497"/>
      <point x="271" y="636"/>
      <point x="417" y="636" type="curve" smooth="yes"/>
      <point x="483" y="636"/>
      <point x="551" y="615"/>
      <point x="597" y="580" type="curve"/>
      <point x="613" y="671" type="line"/>
      <point x="543" y="697"/>
      <point x="487" y="705"/>
      <point x="414" y="705" type="curve" smooth="yes"/>
      <point x="216" y="705"/>
      <point x="68" y="541"/>
      <point x="68" y="348" type="curve" smooth="yes"/>
      <point x="68" y="142"/>
      <point x="225" y="-10"/>
      <point x="420" y="-10" type="curve" smooth="yes"/>
      <point x="518" y="-10"/>
      <point x="559" y="10"/>
      <point x="625" y="46" type="curve"/>
    </contour>
  </outline>
</glyph>
<glyph name="D" format="2">
  <advance width="767"/>
  <unicode hex="0044"/>
  <outline>
    <contour>
      <point x="98" y="694" type="line"/>
      <point x="98" y="0" type="line"/>
      <point x="382" y="0" type="line" smooth="yes"/>
      <point x="562" y="0"/>
      <point x="707" y="152"/>
      <point x="707" y="341" type="curve" smooth="yes"/>
      <point x="707" y="537"/>
      <point x="561" y="694"/>
      <point x="382" y="694" type="curve" smooth="yes"/>
    </contour>
    <contour>
      <point x="196" y="59" type="line"/>
      <point x="196" y="635" type="line"/>
      <point x="355" y="635" type="line" smooth="yes"/>
      <point x="492" y="635"/>
      <point x="609" y="526"/>
      <point x="609" y="342" type="curve" smooth="yes"/>
      <point x="609" y="156"/>
      <point x="487" y="59"/>
      <point x="355" y="59" type="curve" smooth="yes"/>
    </contour>
  </outline>
</glyph>
<glyph name="E" format="2">
  <advance width="637"/>
  <unicode hex="0045"/>
  <outline>
    <contour>
      <point x="547" y="326" type="line"/>
      <point x="547" y="392" type="line"/>
      <point x="198" y="392" type="line"/>
      <point x="198" y="622" type="line"/>
      <point x="344" y="622" type="line" smooth="yes"/>
      <point x="356" y="622"/>
      <point x="368" y="621"/>
      <point x="380" y="621" type="curve" smooth="yes"/>
      <point x="577" y="621" type="line"/>
      <point x="577" y="691" type="line"/>
      <point x="97" y="691" type="line"/>
      <point x="97" y="0" type="line"/>
      <point x="592" y="0" type="line"/>
      <point x="592" y="78" type="line"/>
      <point x="502" y="78" type="line" smooth="yes"/>
      <point x="418" y="78"/>
      <point x="334" y="76"/>
      <point x="250" y="76" type="curve" smooth="yes"/>
      <point x="198" y="76" type="line"/>
      <point x="198" y="326" type="line"/>
    </contour>
  </outline>
</glyph>
<glyph name="F" format="2">
  <advance width="607"/>
  <unicode hex="0046"/>
  <outline>
    <contour>
      <point x="518" y="313" type="line"/>
      <point x="518" y="379" type="line"/>
      <point x="198" y="379" type="line"/>
      <point x="198" y="622" type="line"/>
      <point x="337" y="622" type="line" smooth="yes"/>
      <point x="349" y="622"/>
      <point x="361" y="621"/>
      <point x="373" y="621" type="curve" smooth="yes"/>
      <point x="563" y="621" type="line"/>
      <point x="563" y="691" type="line"/>
      <point x="97" y="691" type="line"/>
      <point x="97" y="0" type="line"/>
      <point x="198" y="0" type="line"/>
      <point x="198" y="313" type="line"/>
    </contour>
  </outline>
</glyph>
<glyph name="H" format="2">
  <advance width="750"/>
  <unicode hex="0048"/>
  <outline>
    <contour>
      <point x="652" y="694" type="line"/>
      <point x="551" y="694" type="line"/>
      <point x="551" y="394" type="line"/>
      <point x="198" y="394" type="line"/>
      <point x="198" y="694" type="line"/>
      <point x="97" y="694" type="line"/>
      <point x="97" y="0" type="line"/>
      <point x="198" y="0" type="line"/>
      <point x="198" y="328" type="line"/>
      <point x="551" y="328" type="line"/>
      <point x="551" y="0" type="line"/>
      <point x="652" y="0" type="line"/>
    </contour>
  </outline>
</glyph>
<glyph name="J" format="2">
  <advance width="501"/>
  <unicode hex="004A"/>
  <outline>
    <contour>
      <point x="413" y="694" type="line"/>
      <point x="315" y="694" type="line"/>
      <point x="315" y="153" type="line" smooth="yes"/>
      <point x="315" y="132"/>
      <point x="315" y="46"/>
      <point x="193" y="46" type="curve" smooth="yes"/>
      <point x="122" y="46"/>
      <point x="79" y="82"/>
      <point x="59" y="103" type="curve"/>
      <point x="44" y="21" type="line"/>
      <point x="98" y="-5"/>
      <point x="164" y="-21"/>
      <point x="226" y="-21" type="curve" smooth="yes"/>
      <point x="332" y="-21"/>
      <point x="413" y="33"/>
      <point x="413" y="149" type="curve" smooth="yes"/>
    </contour>
  </outline>
</glyph>
<glyph name="K" format="2">
  <advance width="737"/>
  <unicode hex="004B"/>
  <outline>
    <contour>
      <point x="394" y="420" type="line"/>
      <point x="678" y="694" type="line"/>
      <point x="576" y="694" type="line"/>
      <point x="194" y="326" type="line"/>
      <point x="194" y="694" type="line"/>
      <point x="100" y="694" type="line"/>
      <point x="100" y="0" type="line"/>
      <point x="194" y="0" type="line"/>
      <point x="194" y="228" type="line"/>
      <point x="333" y="361" type="line"/>
      <point x="590" y="0" type="line"/>
      <point x="693" y="0" type="line"/>
    </contour>
  </outline>
</glyph>
<glyph name="L" format="2">
  <advance width="578"/>
  <unicode hex="004C"/>
  <outline>
    <contour>
      <point x="198" y="694" type="line"/>
      <point x="97" y="694" type="line"/>
      <point x="97" y="0" type="line"/>
      <point x="533" y="0" type="line"/>
      <point x="533" y="71" type="line"/>
      <point x="438" y="71"/>
      <point x="343" y="69"/>
      <point x="248" y="69" type="curve" smooth="yes"/>
      <point x="198" y="69" type="line"/>
    </contour>
  </outline>
</glyph>
<glyph name="M" format="2">
  <advance width="927"/>
  <unicode hex="004D"/>
  <outline>
    <contour>
      <point x="105" y="0" type="line"/>
      <point x="189" y="0" type="line"/>
      <point x="189" y="614" type="line"/>
      <point x="190" y="614" type="line"/>
      <point x="198" y="579"/>
      <point x="250" y="447"/>
      <point x="255" y="436" type="curve" smooth="yes"/>
      <point x="422" y="21" type="line"/>
      <point x="501" y="21" type="line"/>
      <point x="650" y="389" type="line"/>
      <point x="650" y="390"/>
      <point x="719" y="560"/>
      <point x="736" y="615" type="curve"/>
      <point x="737" y="615" type="line"/>
      <point x="737" y="0" type="line"/>
      <point x="821" y="0" type="line"/>
      <point x="821" y="694" type="line"/>
      <point x="698" y="694" type="line"/>
      <point x="557" y="347" type="line" smooth="yes"/>
      <point x="545" y="317"/>
      <point x="473" y="141"/>
      <point x="463" y="99" type="curve"/>
      <point x="462" y="99" type="line"/>
      <point x="455" y="128"/>
      <point x="409" y="243"/>
      <point x="399" y="269" type="curve" smooth="yes"/>
      <point x="227" y="694" type="line"/>
      <point x="105" y="694" type="line"/>
    </contour>
  </outline>
</glyph>
<glyph name="N" format="2">
  <advance width="750"/>
  <unicode hex="004E"/>
  <outline>
    <contour>
      <point x="236" y="694" type="line"/>
      <point x="100" y="694" type="line"/>
      <point x="100" y="0" type="line"/>
      <point x="184" y="0" type="line"/>
      <point x="184" y="615" type="line"/>
      <point x="185" y="615" type="line"/>
      <point x="513" y="0" type="line"/>
      <point x="649" y="0" type="line"/>
      <point x="649" y="694" type="line"/>
      <point x="565" y="694" type="line"/>
      <point x="565" y="79" type="line"/>
      <point x="564" y="79" type="line"/>
    </contour>
  </outline>
</glyph>
<glyph name="Q" format="2">
  <advance width="784"/>
  <unicode hex="0051"/>
  <outline>
    <contour>
      <point x="568" y="33" type="line"/>
      <point x="666" y="103"/>
      <point x="725" y="215"/>
      <point x="725" y="344" type="curve" smooth="yes"/>
      <point x="725" y="551"/>
      <point x="573" y="715"/>
      <point x="392" y="715" type="curve" smooth="yes"/>
      <point x="211" y="715"/>
      <point x="59" y="551"/>
      <point x="59" y="344" type="curve" smooth="yes"/>
      <point x="59" y="137"/>
      <point x="213" y="-21"/>
      <point x="392" y="-21" type="curve" smooth="yes"/>
      <point x="437" y="-21"/>
      <point x="478" y="-9"/>
      <point x="488" y="-6" type="curve"/>
      <point x="577" y="-128" type="line"/>
      <point x="695" y="-128" type="line"/>
    </contour>
    <contour>
      <point x="444" y="55" type="line"/>
      <point x="427" y="50"/>
      <point x="405" y="48"/>
      <point x="392" y="48" type="curve" smooth="yes"/>
      <point x="270" y="48"/>
      <point x="157" y="162"/>
      <point x="157" y="344" type="curve" smooth="yes"/>
      <point x="157" y="528"/>
      <point x="269" y="646"/>
      <point x="392" y="646" type="curve" smooth="yes"/>
      <point x="515" y="646"/>
      <point x="627" y="528"/>
      <point x="627" y="344" type="curve" smooth="yes"/>
      <point x="627" y="231"/>
      <point x="584" y="145"/>
      <point x="521" y="94" type="curve"/>
      <point x="441" y="194" type="line"/>
      <point x="343" y="194" type="line"/>
    </contour>
  </outline>
</glyph>
<glyph name="S" format="2">
  <advance width="590"/>
  <unicode hex="0053"/>
  <outline>
    <contour>
      <point x="494" y="666" type="line"/>
      <point x="430" y="699"/>
      <point x="373" y="715"/>
      <point x="299" y="715" type="curve" smooth="yes"/>
      <point x="148" y="715"/>
      <point x="59" y="613"/>
      <point x="59" y="517" type="curve" smooth="yes"/>
      <point x="59" y="476"/>
      <point x="72" y="428"/>
      <point x="121" y="382" type="curve" smooth="yes"/>
      <point x="165" y="341"/>
      <point x="211" y="331"/>
      <point x="273" y="316" type="curve" smooth="yes"/>
      <point x="357" y="296"/>
      <point x="380" y="291"/>
      <point x="409" y="261" type="curve" smooth="yes"/>
      <point x="428" y="242"/>
      <point x="444" y="214"/>
      <point x="444" y="180" type="curve" smooth="yes"/>
      <point x="444" y="118"/>
      <point x="388" y="54"/>
      <point x="291" y="54" type="curve" smooth="yes"/>
      <point x="234" y="54"/>
      <point x="142" y="71"/>
      <point x="63" y="138" type="curve"/>
      <point x="47" y="48" type="line"/>
      <point x="97" y="19"/>
      <point x="180" y="-21"/>
      <point x="292" y="-21" type="curve" smooth="yes"/>
      <point x="431" y="-21"/>
      <point x="530" y="80"/>
      <point x="530" y="192" type="curve" smooth="yes"/>
      <point x="530" y="273"/>
      <point x="483" y="319"/>
      <point x="463" y="340" type="curve" smooth="yes"/>
      <point x="421" y="381"/>
      <point x="375" y="392"/>
      <point x="298" y="410" type="curve" smooth="yes"/>
      <point x="237" y="424"/>
      <point x="205" y="432"/>
      <point x="181" y="455" type="curve" smooth="yes"/>
      <point x="168" y="468"/>
      <point x="145" y="491"/>
      <point x="145" y="529" type="curve" smooth="yes"/>
      <point x="145" y="585"/>
      <point x="201" y="643"/>
      <point x="298" y="643" type="curve" smooth="yes"/>
      <point x="374" y="643"/>
      <point x="427" y="619"/>
      <point x="478" y="576" type="curve"/>
    </contour>
  </outline>
</glyph>
<glyph name="T" format="2">
  <advance width="725"/>
  <unicode hex="0054"/>
  <outline>
    <contour>
      <point x="413" y="618" type="line"/>
      <point x="507" y="618" type="line" smooth="yes"/>
      <point x="519" y="618"/>
      <point x="531" y="617"/>
      <point x="543" y="617" type="curve" smooth="yes"/>
      <point x="687" y="617" type="line"/>
      <point x="687" y="687" type="line"/>
      <point x="38" y="687" type="line"/>
      <point x="38" y="617" type="line"/>
      <point x="182" y="617" type="line" smooth="yes"/>
      <point x="194" y="617"/>
      <point x="206" y="618"/>
      <point x="218" y="618" type="curve" smooth="yes"/>
      <point x="312" y="618" type="line"/>
      <point x="312" y="0" type="line"/>
      <point x="413" y="0" type="line"/>
    </contour>
  </outline>
</glyph>
<glyph name="U" format="2">
  <advance width="729"/>
  <unicode hex="0055"/>
  <outline>
    <contour>
      <point x="631" y="694" type="line"/>
      <point x="544" y="694" type="line"/>
      <point x="544" y="233" type="line" smooth="yes"/>
      <point x="544" y="99"/>
      <point x="454" y="38"/>
      <point x="368" y="38" type="curve" smooth="yes"/>
      <point x="282" y="38"/>
      <point x="198" y="100"/>
      <point x="198" y="232" type="curve" smooth="yes"/>
      <point x="198" y="694" type="line"/>
      <point x="97" y="694" type="line"/>
      <point x="97" y="234" type="line" smooth="yes"/>
      <point x="97" y="87"/>
      <point x="223" y="-21"/>
      <point x="367" y="-21" type="curve" smooth="yes"/>
      <point x="510" y="-21"/>
      <point x="631" y="88"/>
      <point x="631" y="234" type="curve" smooth="yes"/>
    </contour>
  </outline>
</glyph>
<glyph name="V" format="2">
  <advance width="708"/>
  <unicode hex="0056"/>
  <outline>
    <contour>
      <point x="692" y="694" type="line"/>
      <point x="605" y="694" type="line"/>
      <point x="479" y="387" type="line" smooth="yes"/>
      <point x="472" y="370"/>
      <point x="373" y="129"/>
      <point x="364" y="79" type="curve"/>
      <point x="363" y="79" type="line"/>
      <point x="353" y="130"/>
      <point x="253" y="372"/>
      <point x="249" y="382" type="curve" smooth="yes"/>
      <point x="121" y="694" type="line"/>
      <point x="15" y="694" type="line"/>
      <point x="303" y="0" type="line"/>
      <point x="404" y="0" type="line"/>
    </contour>
  </outline>
</glyph>
<glyph name="X" format="2">
  <advance width="708"/>
  <unicode hex="0058"/>
  <outline>
    <contour>
      <point x="395" y="366" type="line"/>
      <point x="648" y="694" type="line"/>
      <point x="539" y="694" type="line"/>
      <point x="346" y="438" type="line"/>
      <point x="149" y="694" type="line"/>
      <point x="30" y="694" type="line"/>
      <point x="297" y="366" type="line"/>
      <point x="15" y="0" type="line"/>
      <point x="124" y="0" type="line"/>
      <point x="346" y="301" type="line"/>
      <point x="573" y="0" type="line"/>
      <point x="692" y="0" type="line"/>
    </contour>
  </outline>
</glyph>
<glyph name="Y" format="2">
  <advance width="708"/>
  <unicode hex="0059"/>
  <outline>
    <contour>
      <point x="305" y="0" type="line"/>
      <point x="403" y="0" type="line"/>
      <point x="403" y="278" type="line"/>
      <point x="704" y="694" type="line"/>
      <point x="604" y="694" type="line"/>
      <point x="441" y="465" type="line"/>
      <point x="416" y="429"/>
      <point x="390" y="394"/>
      <point x="365" y="358" type="curve"/>
      <point x="339" y="394"/>
      <point x="314" y="429"/>
      <point x="288" y="465" type="curve"/>
      <point x="124" y="694" type="line"/>
      <point x="3" y="694" type="line"/>
      <point x="305" y="278" type="line"/>
    </contour>
  </outline>
</glyph>
<glyph name="Z" format="2">
  <advance width="649"/>
  <unicode hex="005A"/>
  <outline>
    <contour>
      <point x="589" y="650" type="line"/>
      <point x="589" y="694" type="line"/>
      <point x="74" y="694" type="line"/>
      <point x="74" y="627" type="line"/>
      <point x="283" y="627" type="line" smooth="yes"/>
      <point x="297" y="627"/>
      <point x="309" y="628"/>
      <point x="323" y="628" type="curve" smooth="yes"/>
      <point x="460" y="628" type="line"/>
      <point x="59" y="46" type="line"/>
      <point x="59" y="0" type="line"/>
      <point x="595" y="0" type="line"/>
      <point x="595" y="71" type="line"/>
      <point x="495" y="71" type="line" smooth="yes"/>
      <point x="393" y="71"/>
      <point x="291" y="69"/>
      <point x="189" y="69" type="curve"/>
    </contour>
  </outline>
</glyph>
<glyph name="bracketleft" format="2">
  <advance width="309"/>
  <unicode hex="005B"/>
  <outline>
    <contour>
      <point x="285" y="-250" type="line"/>
      <point x="285" y="-184" type="line"/>
      <point x="187" y="-184" type="line"/>
      <point x="187" y="684" type="line"/>
      <point x="285" y="684" type="line"/>
      <point x="285" y="750" type="line"/>
      <point x="107" y="750" type="line"/>
      <point x="107" y="-250" type="line"/>
    </contour>
  </outline>
</glyph>
<glyph name="b" format="2">
  <advance width="548"/>
  <unicode hex="0062"/>
  <outline>
    <contour>
      <point x="169" y="694" type="line"/>
      <point x="85" y="694" type="line"/>
      <point x="85" y="0" type="line"/>
      <point x="172" y="0" type="line"/>
      <point x="172" y="47" type="line"/>
      <point x="194" y="28"/>
      <point x="242" y="-10"/>
      <point x="315" y="-10" type="curve" smooth="yes"/>
      <point x="424" y="-10"/>
      <point x="512" y="92"/>
      <point x="512" y="223" type="curve" smooth="yes"/>
      <point x="512" y="344"/>
      <point x="443" y="454"/>
      <point x="343" y="454" type="curve" smooth="yes"/>
      <point x="280" y="454"/>
      <point x="219" y="434"/>
      <point x="169" y="397" type="curve"/>
    </contour>
    <contour>
      <point x="172" y="315" type="line" smooth="yes"/>
      <point x="172" y="331"/>
      <point x="172" y="343"/>
      <point x="207" y="366" type="curve" smooth="yes"/>
      <point x="222" y="375"/>
      <point x="249" y="388"/>
      <point x="283" y="388" type="curve" smooth="yes"/>
      <point x="350" y="388"/>
      <point x="425" y="343"/>
      <point x="425" y="223" type="curve" smooth="yes"/>
      <point x="425" y="101"/>
      <point x="342" y="56"/>
      <point x="272" y="56" type="curve" smooth="yes"/>
      <point x="235" y="56"/>
      <point x="200" y="73"/>
      <point x="172" y="118" type="curve"/>
    </contour>
  </outline>
</glyph>
<glyph name="c" format="2">
  <advance width="472"/>
  <unicode hex="0063"/>
  <outline>
    <contour>
      <point x="435" y="109" type="line"/>
      <point x="385" y="77"/>
      <point x="331" y="59"/>
      <point x="269" y="59" type="curve" smooth="yes"/>
      <point x="177" y="59"/>
      <point x="123" y="133"/>
      <point x="123" y="223" type="curve" smooth="yes"/>
      <point x="123" y="300"/>
      <point x="163" y="390"/>
      <point x="272" y="390" type="curve" smooth="yes"/>
      <point x="340" y="390"/>
      <point x="372" y="376"/>
      <point x="423" y="344" type="curve"/>
      <point x="436" y="416" type="line"/>
      <point x="376" y="446"/>
      <point x="350" y="459"/>
      <point x="272" y="459" type="curve" smooth="yes"/>
      <point x="122" y="459"/>
      <point x="36" y="338"/>
      <point x="36" y="222" type="curve" smooth="yes"/>
      <point x="36" y="100"/>
      <point x="132" y="-10"/>
      <point x="268" y="-10" type="curve" smooth="yes"/>
      <point x="338" y="-10"/>
      <point x="398" y="11"/>
      <point x="441" y="36" type="curve"/>
    </contour>
  </outline>
</glyph>
<glyph name="d" format="2">
  <advance width="548"/>
  <unicode hex="0064"/>
  <outline>
    <contour>
      <point x="463" y="694" type="line"/>
      <point x="379" y="694" type="line"/>
      <point x="379" y="401" type="line"/>
      <point x="315" y="448"/>
      <point x="250" y="454"/>
      <point x="221" y="454" type="curve" smooth="yes"/>
      <point x="116" y="454"/>
      <point x="36" y="349"/>
      <point x="36" y="222" type="curve" smooth="yes"/>
      <point x="36" y="95"/>
      <point x="115" y="-10"/>
      <point x="218" y="-10" type="curve" smooth="yes"/>
      <point x="280" y="-10"/>
      <point x="338" y="18"/>
      <point x="376" y="52" type="curve"/>
      <point x="376" y="0" type="line"/>
      <point x="463" y="0" type="line"/>
    </contour>
    <contour>
      <point x="376" y="124" type="line"/>
      <point x="351" y="83"/>
      <point x="313" y="56"/>
      <point x="265" y="56" type="curve" smooth="yes"/>
      <point x="195" y="56"/>
      <point x="123" y="105"/>
      <point x="123" y="221" type="curve" smooth="yes"/>
      <point x="123" y="346"/>
      <point x="208" y="388"/>
      <point x="276" y="388" type="curve" smooth="yes"/>
      <point x="316" y="388"/>
      <point x="350" y="371"/>
      <point x="376" y="337" type="curve"/>
    </contour>
  </outline>
</glyph>
<glyph name="e" format="2">
  <advance width="472"/>
  <unicode hex="0065"/>
  <outline>
    <contour>
      <point x="440" y="219" type="line"/>
      <point x="440" y="265"/>
      <point x="435" y="332"/>
      <point x="396" y="389" type="curve" smooth="yes"/>
      <point x="360" y="440"/>
      <point x="300" y="459"/>
      <point x="251" y="459" type="curve" smooth="yes"/>
      <point x="129" y="459"/>
      <point x="35" y="352"/>
      <point x="35" y="225" type="curve" smooth="yes"/>
      <point x="35" y="97"/>
      <point x="135" y="-10"/>
      <point x="267" y="-10" type="curve" smooth="yes"/>
      <point x="325" y="-10"/>
      <point x="385" y="7"/>
      <point x="436" y="38" type="curve"/>
      <point x="430" y="109" type="line"/>
      <point x="374" y="69"/>
      <point x="311" y="56"/>
      <point x="268" y="56" type="curve" smooth="yes"/>
      <point x="181" y="56"/>
      <point x="115" y="127"/>
      <point x="112" y="219" type="curve"/>
    </contour>
    <contour>
      <point x="119" y="279" type="line"/>
      <point x="142" y="359"/>
      <point x="201" y="393"/>
      <point x="251" y="393" type="curve" smooth="yes"/>
      <point x="295" y="393"/>
      <point x="360" y="372"/>
      <point x="379" y="279" type="curve"/>
    </contour>
  </outline>
</glyph>
<glyph name="l" format="2">
  <advance width="253"/>
  <unicode hex="006C"/>
  <outline>
    <contour>
      <point x="168" y="694" type="line"/>
      <point x="84" y="694" type="line"/>
      <point x="84" y="0" type="line"/>
      <point x="168" y="0" type="line"/>
    </contour>
  </outline>
</glyph>
<glyph name="n" format="2">
  <advance width="548"/>
  <unicode hex="006E"/>
  <outline>
    <contour>
      <point x="465" y="296" type="line" smooth="yes"/>
      <point x="465" y="374"/>
      <point x="442" y="454"/>
      <point x="319" y="454" type="curve" smooth="yes"/>
      <point x="262" y="454"/>
      <point x="207" y="431"/>
      <point x="163" y="378" type="curve"/>
      <point x="163" y="451" type="line"/>
      <point x="83" y="451" type="line"/>
      <point x="83" y="0" type="line"/>
      <point x="170" y="0" type="line"/>
      <point x="170" y="243" type="line" smooth="yes"/>
      <point x="170" y="309"/>
      <point x="198" y="388"/>
      <point x="275" y="388" type="curve" smooth="yes"/>
      <point x="378" y="388"/>
      <point x="378" y="318"/>
      <point x="378" y="289" type="curve" smooth="yes"/>
      <point x="378" y="0" type="line"/>
      <point x="465" y="0" type="line"/>
    </contour>
  </outline>
</glyph>
<glyph name="q" format="2">
  <advance width="548"/>
  <unicode hex="0071"/>
  <outline>
    <contour>
      <point x="463" y="454" type="line"/>
      <point x="379" y="454" type="line"/>
      <point x="379" y="387" type="line"/>
      <point x="343" y="427"/>
      <point x="290" y="454"/>
      <point x="232" y="454" type="curve" smooth="yes"/>
      <point x="126" y="454"/>
      <point x="36" y="354"/>
      <point x="36" y="221" type="curve" smooth="yes"/>
      <point x="36" y="96"/>
      <point x="112" y="-10"/>
      <point x="212" y="-10" type="curve" smooth="yes"/>
      <point x="246" y="-10"/>
      <point x="313" y="-2"/>
      <point x="376" y="49" type="curve"/>
      <point x="376" y="-194" type="line"/>
      <point x="463" y="-194" type="line"/>
    </contour>
    <contour>
      <point x="379" y="123" type="line"/>
      <point x="343" y="67"/>
      <point x="295" y="56"/>
      <point x="266" y="56" type="curve" smooth="yes"/>
      <point x="185" y="56"/>
      <point x="123" y="132"/>
      <point x="123" y="221" type="curve" smooth="yes"/>
      <point x="123" y="319"/>
      <point x="198" y="385"/>
      <point x="276" y="385" type="curve" smooth="yes"/>
      <point x="342" y="385"/>
      <point x="379" y="320"/>
      <point x="379" y="278" type="curve" smooth="yes"/>
    </contour>
  </outline>
</glyph>
<glyph name="s" format="2">
  <advance width="407"/>
  <unicode hex="0073"/>
  <outline>
    <contour>
      <point x="365" y="428" type="line"/>
      <point x="297" y="456"/>
      <point x="247" y="459"/>
      <point x="211" y="459" type="curve" smooth="yes"/>
      <point x="186" y="459"/>
      <point x="35" y="459"/>
      <point x="35" y="326" type="curve" smooth="yes"/>
      <point x="35" y="279"/>
      <point x="61" y="253"/>
      <point x="74" y="241" type="curve" smooth="yes"/>
      <point x="109" y="206"/>
      <point x="151" y="198"/>
      <point x="204" y="188" type="curve" smooth="yes"/>
      <point x="251" y="179"/>
      <point x="305" y="169"/>
      <point x="305" y="121" type="curve" smooth="yes"/>
      <point x="305" y="58"/>
      <point x="222" y="58"/>
      <point x="208" y="58" type="curve" smooth="yes"/>
      <point x="144" y="58"/>
      <point x="84" y="81"/>
      <point x="44" y="109" type="curve"/>
      <point x="30" y="34" type="line"/>
      <point x="64" y="17"/>
      <point x="125" y="-10"/>
      <point x="208" y="-10" type="curve" smooth="yes"/>
      <point x="253" y="-10"/>
      <point x="297" y="-3"/>
      <point x="334" y="24" type="curve" smooth="yes"/>
      <point x="371" y="52"/>
      <point x="383" y="96"/>
      <point x="383" y="130" type="curve" smooth="yes"/>
      <point x="383" y="148"/>
      <point x="381" y="187"/>
      <point x="339" y="225" type="curve" smooth="yes"/>
      <point x="302" y="258"/>
      <point x="266" y="265"/>
      <point x="218" y="274" type="curve" smooth="yes"/>
      <point x="159" y="285"/>
      <point x="113" y="294"/>
      <point x="113" y="338" type="curve" smooth="yes"/>
      <point x="113" y="395"/>
      <point x="186" y="395"/>
      <point x="201" y="395" type="curve" smooth="yes"/>
      <point x="258" y="395"/>
      <point x="302" y="383"/>
      <point x="352" y="357" type="curve"/>
    </contour>
  </outline>
</glyph>
<glyph name="t" format="2">
  <advance width="383"/>
  <unicode hex="0074"/>
  <outline>
    <contour>
      <point x="188" y="381" type="line"/>
      <point x="336" y="381" type="line"/>
      <point x="336" y="444" type="line"/>
      <point x="188" y="444" type="line"/>
      <point x="188" y="571" type="line"/>
      <point x="111" y="571" type="line"/>
      <point x="111" y="444" type="line"/>
      <point x="20" y="444" type="line"/>
      <point x="20" y="381" type="line"/>
      <point x="108" y="381" type="line"/>
      <point x="108" y="128" type="line" smooth="yes"/>
      <point x="108" y="61"/>
      <point x="125" y="-10"/>
      <point x="197" y="-10" type="curve" smooth="yes"/>
      <point x="269" y="-10"/>
      <point x="324" y="13"/>
      <point x="354" y="27" type="curve"/>
      <point x="337" y="91" type="line"/>
      <point x="304" y="67"/>
      <point x="269" y="59"/>
      <point x="241" y="59" type="curve" smooth="yes"/>
      <point x="199" y="59"/>
      <point x="188" y="100"/>
      <point x="188" y="146" type="curve" smooth="yes"/>
    </contour>
  </outline>
</glyph>
<glyph name="u" format="2">
  <advance width="548"/>
  <unicode hex="0075"/>
  <outline>
    <contour>
      <point x="465" y="444" type="line"/>
      <point x="378" y="444" type="line"/>
      <point x="378" y="154" type="line" smooth="yes"/>
      <point x="378" y="74"/>
      <point x="310" y="49"/>
      <point x="252" y="49" type="curve" smooth="yes"/>
      <point x="178" y="49"/>
      <point x="170" y="69"/>
      <point x="170" y="115" type="curve" smooth="yes"/>
      <point x="170" y="444" type="line"/>
      <point x="83" y="444" type="line"/>
      <point x="83" y="109" type="line" smooth="yes"/>
      <point x="83" y="20"/>
      <point x="122" y="-10"/>
      <point x="192" y="-10" type="curve" smooth="yes"/>
      <point x="233" y="-10"/>
      <point x="321" y="-2"/>
      <point x="381" y="46" type="curve"/>
      <point x="381" y="0" type="line"/>
      <point x="465" y="0" type="line"/>
    </contour>
  </outline>
</glyph>
<glyph name="v" format="2">
  <advance width="489"/>
  <unicode hex="0076"/>
  <outline>
    <contour>
      <point x="474" y="444" type="line"/>
      <point x="394" y="444" type="line"/>
      <point x="333" y="294" type="line" smooth="yes"/>
      <point x="256" y="104"/>
      <point x="250" y="78"/>
      <point x="247" y="59" type="curve"/>
      <point x="246" y="59" type="line"/>
      <point x="238" y="98"/>
      <point x="210" y="168"/>
      <point x="179" y="245" type="curve" smooth="yes"/>
      <point x="99" y="444" type="line"/>
      <point x="15" y="444" type="line"/>
      <point x="198" y="0" type="line"/>
      <point x="291" y="0" type="line"/>
    </contour>
  </outline>
</glyph>
<glyph name="w" format="2">
  <advance width="725"/>
  <unicode hex="0077"/>
  <outline>
    <contour>
      <point x="161" y="0" type="line"/>
      <point x="245" y="0" type="line"/>
      <point x="295" y="146"/>
      <point x="354" y="336"/>
      <point x="358" y="383" type="curve"/>
      <point x="359" y="384" type="line"/>
      <point x="359" y="366"/>
      <point x="381.0" y="287.0"/>
      <point x="395" y="241" type="curve" smooth="yes"/>
      <point x="472" y="0" type="line"/>
      <point x="564" y="0" type="line"/>
      <point x="710" y="444" type="line"/>
      <point x="632" y="444" type="line"/>
      <point x="536" y="143" type="line"/>
      <point x="528" y="114"/>
      <point x="518" y="82"/>
      <point x="515" y="59" type="curve"/>
      <point x="514" y="59" type="line"/>
      <point x="508" y="100"/>
      <point x="473" y="208"/>
      <point x="471" y="215" type="curve" smooth="yes"/>
      <point x="397" y="444" type="line"/>
      <point x="321" y="444" type="line"/>
      <point x="292" y="358"/>
      <point x="217" y="134"/>
      <point x="209" y="61" type="curve"/>
      <point x="208" y="61" type="line"/>
      <point x="200" y="132"/>
      <point x="125" y="353"/>
      <point x="110" y="401" type="curve" smooth="yes"/>
      <point x="97" y="444" type="line"/>
      <point x="15" y="444" type="line"/>
    </contour>
  </outline>
</glyph>
<glyph name="y" format="2">
  <advance width="489"/>
  <unicode hex="0079"/>
  <outline>
    <contour>
      <point x="474" y="444" type="line"/>
      <point x="393" y="444" type="line"/>
      <point x="312" y="254"/>
      <point x="257" y="125"/>
      <point x="252" y="64" type="curve"/>
      <point x="252" y="63" type="line"/>
      <point x="250" y="104"/>
      <point x="198" y="242"/>
      <point x="101" y="444" type="curve"/>
      <point x="15" y="444" type="line"/>
      <point x="222" y="0" type="line"/>
      <point x="189" y="-76" type="line" smooth="yes"/>
      <point x="165" y="-131"/>
      <point x="149" y="-144"/>
      <point x="122" y="-144" type="curve" smooth="yes"/>
      <point x="118" y="-144"/>
      <point x="81" y="-144"/>
      <point x="38" y="-126" type="curve"/>
      <point x="44" y="-196" type="line"/>
      <point x="53" y="-198"/>
      <point x="90" y="-204"/>
      <point x="121" y="-204" type="curve" smooth="yes"/>
      <point x="161" y="-204"/>
      <point x="197" y="-189"/>
      <point x="239" y="-93" type="curve" smooth="yes"/>
    </contour>
  </outline>
</glyph>
<glyph name="exclamdown" format="2">
  <advance width="336"/>
  <unicode hex="00A1"/>
  <outline>
    <contour>
      <point x="213" y="500" type="line"/>
      <point x="123" y="500" type="line"/>
      <point x="123" y="410" type="line"/>
      <point x="213" y="410" type="line"/>
    </contour>
    <contour>
      <point x="123" y="-194" type="line"/>
      <point x="213" y="-194" type="line"/>
      <point x="204" y="320" type="line"/>
      <point x="132" y="320" type="line"/>
    </contour>
  </outline>
</glyph>
<glyph name="macron" format="2">
  <advance width="531"/>
  <unicode hex="00AF"/>
  <outline>
    <contour>
      <point x="456" y="566" type="line"/>
      <point x="456" y="636" type="line"/>
      <point x="74" y="636" type="line"/>
      <point x="74" y="566" type="line"/>
    </contour>
  </outline>
</glyph>
<glyph name="OE" format="2">
  <advance width="1033"/>
  <unicode hex="0152"/>
  <outline>
    <contour>
      <point x="599" y="328" type="line"/>
      <point x="943" y="328" type="line"/>
      <point x="943" y="394" type="line"/>
      <point x="599" y="394" type="line"/>
      <point x="599" y="625" type="line"/>
      <point x="743" y="625" type="line" smooth="yes"/>
      <point x="755" y="625"/>
      <point x="767" y="624"/>
      <point x="779" y="624" type="curve" smooth="yes"/>
      <point x="973" y="624" type="line"/>
      <point x="973" y="694" type="line"/>
      <point x="553" y="694" type="line" smooth="yes"/>
      <point x="536" y="694"/>
      <point x="517" y="694"/>
      <point x="461" y="706" type="curve" smooth="yes"/>
      <point x="413" y="715"/>
      <point x="391" y="715"/>
      <point x="381" y="715" type="curve" smooth="yes"/>
      <point x="193" y="715"/>
      <point x="29" y="553"/>
      <point x="29" y="344" type="curve" smooth="yes"/>
      <point x="29" y="136"/>
      <point x="195" y="-21"/>
      <point x="381" y="-21" type="curve" smooth="yes"/>
      <point x="407" y="-21"/>
      <point x="430" y="-17"/>
      <point x="462" y="-11" type="curve" smooth="yes"/>
      <point x="517" y="-1"/>
      <point x="535" y="0"/>
      <point x="553" y="0" type="curve" smooth="yes"/>
      <point x="988" y="0" type="line"/>
      <point x="988" y="78" type="line"/>
      <point x="899" y="78" type="line" smooth="yes"/>
      <point x="817" y="78"/>
      <point x="733" y="76"/>
      <point x="651" y="76" type="curve" smooth="yes"/>
      <point x="599" y="76" type="line"/>
    </contour>
    <contour>
      <point x="501" y="202" type="line" smooth="yes"/>
      <point x="501" y="67"/>
      <point x="470" y="45"/>
      <point x="387" y="45" type="curve" smooth="yes"/>
      <point x="236" y="45"/>
      <point x="127" y="192"/>
      <point x="127" y="360" type="curve" smooth="yes"/>
      <point x="127" y="516"/>
      <point x="236" y="649"/>
      <point x="387" y="649" type="curve" smooth="yes"/>
      <point x="470" y="649"/>
      <point x="501" y="627"/>
      <point x="501" y="492" type="curve" smooth="yes"/>
    </contour>
  </outline>
</glyph>
<glyph name="oe" format="2">
  <advance width="826"/>
  <unicode hex="0153"/>
  <outline>
    <contour>
      <point x="257" y="-10" type="curve" smooth="yes"/>
      <point x="345" y="-10"/>
      <point x="410" y="41"/>
      <point x="443" y="87" type="curve"/>
      <point x="512" y="-1"/>
      <point x="594" y="-10"/>
      <point x="635" y="-10" type="curve" smooth="yes"/>
      <point x="708" y="-10"/>
      <point x="764" y="20"/>
      <point x="790" y="38" type="curve"/>
      <point x="784" y="109" type="line"/>
      <point x="739" y="72"/>
      <point x="684" y="56"/>
      <point x="637" y="56" type="curve" smooth="yes"/>
      <point x="559" y="56"/>
      <point x="491" y="120"/>
      <point x="486" y="219" type="curve"/>
      <point x="795" y="219" type="line"/>
      <point x="795" y="253"/>
      <point x="795" y="459"/>
      <point x="619" y="459" type="curve" smooth="yes"/>
      <point x="595" y="459"/>
      <point x="507" y="455"/>
      <point x="442" y="363" type="curve"/>
      <point x="410" y="408"/>
      <point x="345" y="459"/>
      <point x="257" y="459" type="curve" smooth="yes"/>
      <point x="130" y="459"/>
      <point x="30" y="352"/>
      <point x="30" y="225" type="curve" smooth="yes"/>
      <point x="30" y="94"/>
      <point x="132" y="-10"/>
    </contour>
    <contour>
      <point x="256" y="56" type="curve" smooth="yes"/>
      <point x="181" y="56"/>
      <point x="110" y="114"/>
      <point x="110" y="230" type="curve" smooth="yes"/>
      <point x="110" y="341"/>
      <point x="181" y="393"/>
      <point x="256" y="393" type="curve" smooth="yes"/>
      <point x="328" y="393"/>
      <point x="399" y="343"/>
      <point x="399" y="230" type="curve" smooth="yes"/>
      <point x="399" y="113"/>
      <point x="330" y="56"/>
    </contour>
    <contour>
      <point x="493" y="279" type="line"/>
      <point x="512" y="349"/>
      <point x="564" y="393"/>
      <point x="620" y="393" type="curve" smooth="yes"/>
      <point x="649" y="393"/>
      <point x="714" y="380"/>
      <point x="731" y="279" type="curve"/>
    </contour>
  </outline>
</glyph>
<glyph name="ring" format="2">
  <advance width="708"/>
  <unicode hex="02DA"/>
  <outline>
    <contour>
      <point x="472" y="610" type="curve" smooth="yes"/>
      <point x="472" y="657"/>
      <point x="419" y="694"/>
      <point x="354" y="694" type="curve" smooth="yes"/>
      <point x="283" y="694"/>
      <point x="235" y="653"/>
      <point x="235" y="611" type="curve" smooth="yes"/>
      <point x="235" y="564"/>
      <point x="288" y="527"/>
      <point x="353" y="527" type="curve" smooth="yes"/>
      <point x="424" y="527"/>
      <point x="472" y="568"/>
    </contour>
    <contour>
      <point x="354" y="569" type="curve" smooth="yes"/>
      <point x="344" y="569"/>
      <point x="295" y="569"/>
      <point x="295" y="610" type="curve" smooth="yes"/>
      <point x="295" y="650"/>
      <point x="339" y="652"/>
      <point x="353" y="652" type="curve" smooth="yes"/>
      <point x="363" y="652"/>
      <point x="412" y="652"/>
      <point x="412" y="611" type="curve" smooth="yes"/>
      <point x="412" y="571"/>
      <point x="368" y="569"/>
    </contour>
  </outline>
</glyph>
<glyph name="Gamma" format="2">
  <advance width="578"/>
  <unicode hex="0393"/>
  <outline>
    <contour>
      <point x="322" y="622" type="line" smooth="yes"/>
      <point x="334" y="622"/>
      <point x="346" y="621"/>
      <point x="358" y="621" type="curve" smooth="yes"/>
      <point x="533" y="621" type="line"/>
      <point x="533" y="691" type="line"/>
      <point x="97" y="691" type="line"/>
      <point x="97" y="0" type="line"/>
      <point x="198" y="0" type="line"/>
      <point x="198" y="622" type="line"/>
    </contour>
  </outline>
</glyph>
<glyph name="Theta" format="2">
  <advance width="826"/>
  <unicode hex="0398"/>
  <outline>
    <contour>
      <point x="766" y="344" type="curve" smooth="yes"/>
      <point x="766" y="550"/>
      <point x="606" y="715"/>
      <point x="413" y="715" type="curve" smooth="yes"/>
      <point x="217" y="715"/>
      <point x="59" y="548"/>
      <point x="59" y="344" type="curve" smooth="yes"/>
      <point x="59" y="139"/>
      <point x="221" y="-21"/>
      <point x="412" y="-21" type="curve" smooth="yes"/>
      <point x="607" y="-21"/>
      <point x="766" y="141"/>
    </contour>
    <contour>
      <point x="413" y="47" type="curve" smooth="yes"/>
      <point x="272" y="47"/>
      <point x="153" y="168"/>
      <point x="153" y="344" type="curve" smooth="yes"/>
      <point x="153" y="527"/>
      <point x="275" y="649"/>
      <point x="412" y="649" type="curve" smooth="yes"/>
      <point x="552" y="649"/>
      <point x="672" y="524"/>
      <point x="672" y="344" type="curve" smooth="yes"/>
      <point x="672" y="165"/>
      <point x="550" y="47"/>
    </contour>
    <contour>
      <point x="213" y="395" type="line"/>
      <point x="213" y="301" type="line"/>
      <point x="612" y="301" type="line"/>
      <point x="612" y="395" type="line"/>
    </contour>
  </outline>
</glyph>
<glyph name="Lambda" format="2">
  <advance width="649"/>
  <unicode hex="039B"/>
  <outline>
    <contour>
      <point x="372" y="694" type="line"/>
      <point x="276" y="694" type="line"/>
      <point x="30" y="0" type="line"/>
      <point x="111" y="0" type="line"/>
      <point x="207" y="272" type="line" smooth="yes"/>
      <point x="228" y="330"/>
      <point x="246" y="389"/>
      <point x="265" y="448" type="curve" smooth="yes"/>
      <point x="279" y="488"/>
      <point x="307" y="576"/>
      <point x="311" y="613" type="curve"/>
      <point x="312" y="613" type="line"/>
      <point x="314" y="591"/>
      <point x="328" y="538"/>
      <point x="345" y="484" type="curve" smooth="yes"/>
      <point x="359" y="441"/>
      <point x="376" y="386"/>
      <point x="387" y="354" type="curve" smooth="yes"/>
      <point x="511" y="0" type="line"/>
      <point x="618" y="0" type="line"/>
    </contour>
  </outline>
</glyph>
<glyph name="Xi" format="2">
  <advance width="708"/>
  <unicode hex="039E"/>
  <outline>
    <contour>
      <point x="184" y="602" type="line" smooth="yes"/>
      <point x="240" y="602"/>
      <point x="297" y="603"/>
      <point x="353" y="603" type="curve" smooth="yes"/>
      <point x="409" y="603"/>
      <point x="467" y="602"/>
      <point x="523" y="602" type="curve" smooth="yes"/>
      <point x="657" y="602" type="line"/>
      <point x="657" y="687" type="line"/>
      <point x="50" y="687" type="line"/>
      <point x="50" y="602" type="line"/>
    </contour>
    <contour>
      <point x="526" y="85" type="line" smooth="yes"/>
      <point x="469" y="85"/>
      <point x="411" y="84"/>
      <point x="354" y="84" type="curve" smooth="yes"/>
      <point x="297" y="84"/>
      <point x="238" y="85"/>
      <point x="181" y="85" type="curve" smooth="yes"/>
      <point x="44" y="85" type="line"/>
      <point x="44" y="0" type="line"/>
      <point x="663" y="0" type="line"/>
      <point x="663" y="85" type="line"/>
    </contour>
    <contour>
      <point x="118" y="399" type="line"/>
      <point x="118" y="315" type="line"/>
      <point x="589" y="315" type="line"/>
      <point x="589" y="399" type="line"/>
    </contour>
  </outline>
</glyph>
<glyph name="Pi" format="2">
  <advance width="750"/>
  <unicode hex="03A0"/>
  <outline>
    <contour>
      <point x="652" y="691" type="line"/>
      <point x="97" y="691" type="line"/>
      <point x="97" y="0" type="line"/>
      <point x="198" y="0" type="line"/>
      <point x="198" y="625" type="line"/>
      <point x="551" y="625" type="line"/>
      <point x="551" y="0" type="line"/>
      <point x="652" y="0" type="line"/>
    </contour>
  </outline>
</glyph>
<glyph name="Sigma" format="2">
  <advance width="767"/>
  <unicode hex="03A3"/>
  <outline>
    <contour>
      <point x="427" y="347" type="line"/>
      <point x="191" y="625" type="line"/>
      <point x="398" y="625" type="line" smooth="yes"/>
      <point x="410" y="625"/>
      <point x="422" y="624"/>
      <point x="434" y="624" type="curve" smooth="yes"/>
      <point x="707" y="624" type="line"/>
      <point x="707" y="694" type="line"/>
      <point x="59" y="694" type="line"/>
      <point x="59" y="625" type="line"/>
      <point x="307" y="332" type="line"/>
      <point x="59" y="0" type="line"/>
      <point x="707" y="0" type="line"/>
      <point x="707" y="76" type="line"/>
      <point x="455" y="76" type="line" smooth="yes"/>
      <point x="443" y="76"/>
      <point x="431" y="75"/>
      <point x="419" y="75" type="curve" smooth="yes"/>
      <point x="224" y="75" type="line"/>
    </contour>
  </outline>
</glyph>
<glyph name="Upsilon" format="2">
  <advance width="826"/>
  <unicode hex="03A5"/>
  <outline>
    <contour>
      <point x="463" y="370" type="line" smooth="yes"/>
      <point x="463" y="531"/>
      <point x="499" y="639"/>
      <point x="595" y="639" type="curve" smooth="yes"/>
      <point x="641" y="639"/>
      <point x="677" y="606"/>
      <point x="679" y="555" type="curve"/>
      <point x="766" y="555" type="line"/>
      <point x="764" y="655"/>
      <point x="680" y="715"/>
      <point x="597" y="715" type="curve" smooth="yes"/>
      <point x="450" y="715"/>
      <point x="421" y="538"/>
      <point x="413" y="491" type="curve"/>
      <point x="412" y="491" type="line"/>
      <point x="400" y="556"/>
      <point x="368" y="715"/>
      <point x="228" y="715" type="curve" smooth="yes"/>
      <point x="145" y="715"/>
      <point x="61" y="655"/>
      <point x="59" y="555" type="curve"/>
      <point x="146" y="555" type="line"/>
      <point x="148" y="606"/>
      <point x="184" y="639"/>
      <point x="230" y="639" type="curve" smooth="yes"/>
      <point x="322" y="639"/>
      <point x="362" y="540"/>
      <point x="362" y="370" type="curve" smooth="yes"/>
      <point x="362" y="0" type="line"/>
      <point x="463" y="0" type="line"/>
    </contour>
  </outline>
</glyph>
<glyph name="Phi" format="2">
  <advance width="767"/>
  <unicode hex="03A6"/>
  <outline>
    <contour>
      <point x="427" y="694" type="line"/>
      <point x="333" y="694" type="line"/>
      <point x="333" y="587" type="line"/>
      <point x="178" y="570"/>
      <point x="59" y="467"/>
      <point x="59" y="347" type="curve" smooth="yes"/>
      <point x="59" y="227"/>
      <point x="178" y="124"/>
      <point x="333" y="107" type="curve"/>
      <point x="333" y="0" type="line"/>
      <point x="427" y="0" type="line"/>
      <point x="427" y="106" type="line"/>
      <point x="589" y="122"/>
      <point x="707" y="228"/>
      <point x="707" y="347" type="curve" smooth="yes"/>
      <point x="707" y="466"/>
      <point x="589" y="572"/>
      <point x="427" y="588" type="curve"/>
    </contour>
    <contour>
      <point x="333" y="174" type="line"/>
      <point x="226" y="188"/>
      <point x="157" y="259"/>
      <point x="157" y="347" type="curve" smooth="yes"/>
      <point x="157" y="434"/>
      <point x="225" y="506"/>
      <point x="333" y="520" type="curve"/>
    </contour>
    <contour>
      <point x="427" y="521" type="line"/>
      <point x="550" y="506"/>
      <point x="609" y="427"/>
      <point x="609" y="347" type="curve" smooth="yes"/>
      <point x="609" y="268"/>
      <point x="550" y="188"/>
      <point x="427" y="173" type="curve"/>
    </contour>
  </outline>
</glyph>
<glyph name="Psi" format="2">
  <advance width="826"/>
  <unicode hex="03A8"/>
  <outline>
    <contour>
      <point x="456" y="694" type="line"/>
      <point x="362" y="694" type="line"/>
      <point x="362" y="176" type="line"/>
      <point x="230" y="212"/>
      <point x="224" y="355"/>
      <point x="224" y="423" type="curve" smooth="yes"/>
      <point x="224" y="571"/>
      <point x="208" y="616"/>
      <point x="143" y="616" type="curve" smooth="yes"/>
      <point x="59" y="616" type="line"/>
      <point x="59" y="550" type="line"/>
      <point x="129" y="547"/>
      <point x="130" y="451"/>
      <point x="130" y="402" type="curve" smooth="yes"/>
      <point x="131" y="248"/>
      <point x="206" y="129"/>
      <point x="362" y="107" type="curve"/>
      <point x="362" y="0" type="line"/>
      <point x="456" y="0" type="line"/>
      <point x="456" y="107" type="line"/>
      <point x="693" y="138"/>
      <point x="695" y="361"/>
      <point x="695" y="428" type="curve" smooth="yes"/>
      <point x="695" y="458"/>
      <point x="701" y="547"/>
      <point x="766" y="550" type="curve"/>
      <point x="766" y="616" type="line"/>
      <point x="682" y="616" type="line" smooth="yes"/>
      <point x="636" y="616"/>
      <point x="601" y="603"/>
      <point x="601" y="440" type="curve" smooth="yes"/>
      <point x="601" y="365"/>
      <point x="600" y="212"/>
      <point x="456" y="176" type="curve"/>
    </contour>
  </outline>
</glyph>
<glyph name="endash" format="2">
  <advance width="531"/>
  <unicode hex="2013"/>
  <outline>
    <contour>
      <point x="530" y="241" type="line"/>
      <point x="530" y="307" type="line"/>
      <point x="0" y="307" type="line"/>
      <point x="0" y="241" type="line"/>
    </contour>
  </outline>
</glyph>
<glyph name="emdash" format="2">
  <advance width="1062"/>
  <unicode hex="2014"/>
  <outline>
    <contour>
      <point x="1062" y="241" type="line"/>
      <point x="1062" y="307" type="line"/>
      <point x="0" y="307" type="line"/>
      <point x="0" y="241" type="line"/>
    </contour>
  </outline>
</glyph>
<glyph name="Omega" format="2">
  <advance width="767"/>
  <unicode hex="2126"/>
  <outline>
    <contour>
      <point x="719" y="77" type="line"/>
      <point x="628" y="77" type="line" smooth="yes"/>
      <point x="616" y="77"/>
      <point x="604" y="76"/>
      <point x="592" y="76" type="curve" smooth="yes"/>
      <point x="535" y="76" type="line"/>
      <point x="549" y="120"/>
      <point x="566" y="155"/>
      <point x="613" y="227" type="curve" smooth="yes"/>
      <point x="663" y="307"/>
      <point x="707" y="378"/>
      <point x="707" y="462" type="curve" smooth="yes"/>
      <point x="707" y="598"/>
      <point x="568" y="715"/>
      <point x="383" y="715" type="curve" smooth="yes"/>
      <point x="198" y="715"/>
      <point x="59" y="597"/>
      <point x="59" y="462" type="curve" smooth="yes"/>
      <point x="59" y="377"/>
      <point x="104" y="305"/>
      <point x="156" y="223" type="curve" smooth="yes"/>
      <point x="202" y="151"/>
      <point x="218" y="118"/>
      <point x="231" y="76" type="curve"/>
      <point x="174" y="76" type="line" smooth="yes"/>
      <point x="162" y="76"/>
      <point x="150" y="77"/>
      <point x="138" y="77" type="curve" smooth="yes"/>
      <point x="47" y="77" type="line"/>
      <point x="47" y="0" type="line"/>
      <point x="309" y="0" type="line"/>
      <point x="308" y="81"/>
      <point x="278" y="144"/>
      <point x="241" y="219" type="curve" smooth="yes"/>
      <point x="196" y="308"/>
      <point x="160" y="380"/>
      <point x="160" y="461" type="curve" smooth="yes"/>
      <point x="160" y="569"/>
      <point x="255" y="649"/>
      <point x="383" y="649" type="curve" smooth="yes"/>
      <point x="512" y="649"/>
      <point x="606" y="568"/>
      <point x="606" y="461" type="curve" smooth="yes"/>
      <point x="606" y="380"/>
      <point x="569" y="305"/>
      <point x="530" y="228" type="curve" smooth="yes"/>
      <point x="491" y="149"/>
      <point x="458" y="84"/>
      <point x="457" y="0" type="curve"/>
      <point x="719" y="0" type="line"/>
    </contour>
  </outline>
</glyph>
<glyph name="Delta" format="2">
  <advance width="885"/>
  <unicode hex="2206"/>
  <outline>
    <contour>
      <point x="492" y="694" type="line"/>
      <point x="392" y="694" type="line"/>
      <point x="44" y="0" type="line"/>
      <point x="840" y="0" type="line"/>
    </contour>
    <contour>
      <point x="321" y="384" type="line" smooth="yes"/>
      <point x="353" y="449"/>
      <point x="415" y="574"/>
      <point x="428" y="618" type="curve"/>
      <point x="440" y="579"/>
      <point x="470" y="517"/>
      <point x="493" y="471" type="curve" smooth="yes"/>
      <point x="679" y="94" type="line"/>
      <point x="177" y="94" type="line"/>
    </contour>
  </outline>
</glyph>
<glyph name="suppress" format="2">
  <advance width="253"/>
  <outline>
    <contour>
      <point x="261" y="337" type="line"/>
      <point x="244" y="398" type="line"/>
      <point x="-9" y="326" type="line"/>
      <point x="9" y="265" type="line"/>
    </contour>
  </outline>
</glyph>
